# xmcd
# 
# Track frame offsets:
#     150
#     17332
#     34822
#     60627
#     93327
#     104855
#     121170
#     138795
#     163895
#     182290
# 
# Disc length: 2787
# 
# Revision: 14
# Processed by: cddbd v1.5.2PL0 Copyright (c) Steve Scherf et al.
# Submitted via: fre:ac v1.0.27
# 
DISCID=7a0ae10a
DTITLE=The Rolling Stones - Sticky Fingers
DYEAR=1971
DGENRE=Rock
TTITLE0=Brown Sugar
TTITLE1=Sway
TTITLE2=Wild Horses
TTITLE3=Can't You Hear Me Knocking
TTITLE4=You Gotta Move
TTITLE5=Bitch
TTITLE6=I Got The Blues
TTITLE7=Sister Morphine
TTITLE8=Dead Flowers
TTITLE9=Moonlight Mile
EXTD=YEAR: 1971
EXTT0=
EXTT1=
EXTT2=
EXTT3=
EXTT4=
EXTT5=
EXTT6=
EXTT7=
EXTT8=
EXTT9=
PLAYORDER=
